<svg width="650" height="350" viewBox="0 0 650 350" fill="currentColor" xmlns="http://www.w3.org/2000/svg">
<path fill-rule="evenodd" clip-rule="evenodd" d="M75.6675 34.9377H71.7871H53.5648H48.5368C42.9299 37.8002 38.2212 42.3822 34.9927 48.0545C34.4297 49.0179 33.9113 50.0137 33.4405 51.0386V51.3147L33.4405 53.4529V276.886L33.4405 277.955V278.231C33.9112 279.256 34.4295 280.251 34.9925 281.215C38.2209 286.887 42.9297 291.469 48.5367 294.332H50.4499H51.8143H53.5648H71.7871H72.1061V293.991H157.797V329.27H72.4104H72.1061H50.4499H49.4798V329.26C22.7162 328.726 1.04746 306.145 0 277.955V51.3147C1.04746 23.1246 22.7162 0.543626 49.4798 0.00966992V1.52588e-05H50.4113L50.4499 0L72.4104 1.52588e-05L93.0064 34.9377L75.6675 34.9377ZM91.9138 0L110.772 34.2098H538.183V34.1235L538.231 34.2098L557.089 0H538.183H519.373H129.63H110.772H91.9138ZM118.087 48.1076L132.717 73.7649H516.238L530.868 48.1076H516.238H501.608H147.347H132.717H118.087ZM578.213 34.9377H574.332L556.994 34.9377L577.59 1.52588e-05L599.55 0L599.589 1.52588e-05H600.52V0.00966992C627.284 0.543626 648.953 23.1246 650 51.3147V277.955C648.953 306.145 627.284 328.726 600.52 329.26V329.27H599.55H577.894H577.59H492.203V293.991H577.894V294.332H578.213H596.435H598.186H599.55H601.463C607.07 291.469 611.779 286.887 615.008 281.215C615.57 280.251 616.089 279.256 616.559 278.231V276.886L616.56 53.4529V51.3147V51.0387C616.089 50.0138 615.57 49.0179 615.007 48.0543C611.779 42.3822 607.07 37.8002 601.463 34.9377H596.435H578.213ZM550.724 48.1076L536.093 73.7649V75.6214C562.931 92.1754 581.029 123.443 581.029 159.289C581.029 212.428 541.26 255.505 492.203 255.505L492.203 279.024H600.884V73.7649V48.1076H550.724ZM113.907 73.7649L99.2766 48.1076H49.1158V73.7649V279.024H157.797V255.505C108.74 255.505 68.9711 212.428 68.9711 159.289C68.9711 123.443 87.0686 92.1754 113.907 75.6214L113.907 73.7649ZM140.032 89.8008H182.878L182.878 129.356L171.383 139.292L164.325 145.392H158.585L151.527 139.292L140.032 129.356L140.032 89.8008ZM151.527 158.484L135.852 177.464H97.1864V133.632H135.852L151.527 152.612V158.484ZM151.527 171.804L140.032 181.74L140.032 221.295H182.878V181.74L171.383 171.804L164.325 165.704H158.585L151.527 171.804ZM225.723 133.632V177.464H187.058L171.383 158.484V152.612L187.058 133.632H225.723ZM298.352 112.251H271.182H268.569V112.525C262.026 113.918 257.074 120.445 257.074 128.287C257.074 136.129 262.026 142.656 268.569 144.048V144.323H271.182H298.352H300.965V144.048C307.508 142.656 312.46 136.129 312.46 128.287C312.46 120.445 307.508 113.918 300.965 112.525V112.251H298.352ZM348.513 112.251H375.683H378.296V112.525C384.839 113.918 389.791 120.445 389.791 128.287C389.791 136.129 384.839 142.656 378.296 144.048V144.323H375.683H348.513H345.9V144.048C339.357 142.656 334.405 136.129 334.405 128.287C334.405 120.445 339.357 113.918 345.9 112.525V112.251H348.513ZM486.977 219.157C521.606 219.157 549.678 190.439 549.678 155.013C549.678 119.588 521.606 90.8699 486.977 90.8699C452.349 90.8699 424.277 119.588 424.277 155.013C424.277 190.439 452.349 219.157 486.977 219.157ZM485.932 180.671C500.361 180.671 512.058 168.705 512.058 153.944C512.058 139.184 500.361 127.218 485.932 127.218C471.504 127.218 459.807 139.184 459.807 153.944C459.807 168.705 471.504 180.671 485.932 180.671ZM172.919 277.52L173.055 350L208.832 313.4L208.834 313.401L286.329 234.123H365.761L443.256 313.401L443.258 313.4L479.035 350L479.171 277.52L384.5 180.671H383.521H268.569H267.59L172.919 277.52Z" fill="currentColor"/>
</svg>
